<?xml version="1.0" encoding="utf-8"?>
<!-- Generator: Adobe Illustrator 23.0.6, SVG Export Plug-In . SVG Version: 6.00 Build 0)  -->
<svg version="1.1" id="Capa_1" xmlns="http://www.w3.org/2000/svg" xmlns:xlink="http://www.w3.org/1999/xlink" x="0px" y="0px"
	 viewBox="0 0 784 272" style="enable-background:new 0 0 784 272;" xml:space="preserve">
<style type="text/css">
	.st0{fill:#7A15E5;}
	.st1{fill:#0018A6;}
	.st2{fill:#FFFFFF;}
</style>
<g>
	<path class="st0" d="M714.8,42.9H319.1c-13,0-23.5,10.5-23.5,23.5V179c0,13,10.5,23.5,23.5,23.5h320.8v27.1c0,3.1,3.9,4.5,5.9,2.2
		l25.1-29.3h43.9c13,0,23.5-10.5,23.5-23.5V66.4C738.3,53.4,727.8,42.9,714.8,42.9z"/>
	<g>
		<path class="st1" d="M90.9,179c-15.6,0-28.3-5.1-38.1-15.2c-9.8-10.1-14.7-23.5-14.7-40.1c0-16.6,4.9-29.9,14.8-39.9
			c9.9-10,22.6-15,38.3-15c15.7,0,28.5,4.9,38.5,14.6c10,9.7,15.1,22.7,15.1,38.9c0,3.7-0.3,7.2-0.8,10.4H65.9
			c0.6,7,3.2,12.6,7.7,16.8c4.5,4.3,10.2,6.4,17.2,6.4c9.4,0,16.4-3.9,20.9-11.6h29.4c-3.1,10.2-9.1,18.5-18,24.9
			C114.2,175.7,103.5,179,90.9,179z M108.7,98.2c-4.8-4.3-10.7-6.4-17.5-6.4c-6.8,0-12.5,2.1-17.1,6.4c-4.6,4.2-7.3,9.9-8.2,17h50.6
			C116.2,108.1,113.6,102.4,108.7,98.2z"/>
		<path class="st1" d="M193.5,87c7.6-12.1,18.7-18.2,33.4-18.2c14.7,0,26.8,5.1,36.3,15.4c9.5,10.2,14.3,23.4,14.3,39.6
			c0,16.2-4.8,29.4-14.3,39.7c-9.5,10.3-21.5,15.5-36,15.5c-14.5,0-25.7-6.5-33.7-19.5v73.4h-27.2V70.4h27.2V87z M241.5,146.9
			c5.6-5.7,8.4-13.4,8.4-23.2c0-9.8-2.8-17.5-8.4-23c-5.6-5.5-12.2-8.3-19.8-8.3c-7.6,0-14.2,2.8-19.8,8.4
			c-5.6,5.6-8.4,13.3-8.4,23.1c0,9.8,2.8,17.5,8.4,23.1c5.6,5.6,12.2,8.4,19.8,8.4C229.3,155.4,235.9,152.5,241.5,146.9z"/>
	</g>
	<g>
		<path class="st2" d="M366.6,78.7v16.2c6.2-11.7,15.1-17.5,26.8-17.5v23.8h-5.8c-6.9,0-12.2,1.7-15.7,5.2
			c-3.5,3.5-5.3,9.4-5.3,17.9v45.9h-23.3V78.7H366.6z"/>
		<path class="st2" d="M473,78.7h23.3v91.5H473v-13.9c-5.8,10-15.4,15-28.6,15c-10.4,0-18.8-3.4-25.4-10.3
			c-6.6-6.9-9.9-16.4-9.9-28.7V78.7h23.1v50.4c0,7.2,1.8,12.7,5.5,16.5c3.6,3.9,8.6,5.8,14.9,5.8c6.3,0,11.3-1.9,15-5.8
			c3.7-3.9,5.5-9.4,5.5-16.5V78.7z"/>
		<path class="st2" d="M516,105.5c0-7.9,3.4-14.6,10.1-20c6.7-5.4,15.6-8.1,26.8-8.1c11.1,0,20,2.7,26.8,8
			c6.7,5.3,10.3,12.6,10.7,21.7h-23.8c-0.7-7.7-5.4-11.6-14.2-11.6c-4.4,0-7.8,0.9-10.2,2.6c-2.4,1.8-3.6,4.2-3.6,7.3
			c0,3.1,1.8,5.5,5.5,7.3c3.6,1.8,8,3.1,13.2,4.1c5.2,1,10.3,2.2,15.5,3.7c5.1,1.5,9.5,4.1,13.1,7.9c3.6,3.8,5.5,8.8,5.5,15.1
			c0,8.3-3.5,15-10.5,20.2c-7,5.2-15.9,7.8-26.8,7.8c-10.9,0-19.7-2.6-26.7-7.7c-6.9-5.1-10.7-12.5-11.4-22.1h23.8
			c0.9,7.7,5.8,11.6,14.7,11.6c4.3,0,7.8-1,10.4-2.9c2.6-1.9,4-4.5,4-7.6c0-3.1-1.8-5.6-5.5-7.4c-3.6-1.8-8-3.2-13.2-4.2
			c-5.2-1-10.3-2.2-15.5-3.6c-5.1-1.4-9.5-4-13.1-7.7C517.8,116.3,516,111.5,516,105.5z"/>
		<path class="st2" d="M618.1,158.6c-8.9-8.7-13.4-20.1-13.4-34.2c0-14.1,4.5-25.4,13.6-34c9-8.6,20.2-12.9,33.6-12.9
			c13.4,0,24.6,4.3,33.6,12.9c9,8.6,13.6,19.9,13.6,34c0,14.1-4.5,25.5-13.6,34.2c-9.1,8.7-20.4,13.1-33.8,13.1
			C638.2,171.6,627,167.3,618.1,158.6z M651.7,151.9c6.5,0,12.1-2.4,16.8-7.2c4.7-4.8,7-11.6,7-20.3c0-8.8-2.3-15.5-6.9-20.2
			c-4.6-4.7-10.2-7.1-16.8-7.1c-6.6,0-12.1,2.4-16.6,7.1c-4.5,4.7-6.8,11.5-6.8,20.3c0,8.8,2.3,15.6,6.8,20.3
			C639.7,149.6,645.2,151.9,651.7,151.9z"/>
	</g>
</g>
</svg>
